<?xml version="1.0" standalone="no"?>
<!DOCTYPE svg PUBLIC "-//W3C//DTD SVG 20010904//EN"
 "http://www.w3.org/TR/2001/REC-SVG-20010904/DTD/svg10.dtd">
<svg version="1.0" xmlns="http://www.w3.org/2000/svg"
 width="590.000000pt" height="590.000000pt" viewBox="0 0 590.000000 590.000000"
 preserveAspectRatio="xMidYMid meet">
<metadata>
Created by potrace 1.11, written by Peter Selinger 2001-2013
</metadata>
<g transform="translate(0.000000,590.000000) scale(0.100000,-0.100000)"
fill="#000000" stroke="none">
<path d="M2828 5895 c-2 -1 -48 -5 -103 -9 -93 -6 -121 -9 -200 -21 -16 -3
-48 -7 -70 -11 -186 -27 -446 -104 -675 -199 -68 -28 -313 -155 -331 -171 -8
-8 -19 -14 -23 -14 -21 0 -289 -193 -396 -285 -88 -75 -304 -300 -380 -395
-189 -237 -337 -496 -455 -795 -4 -11 -9 -24 -11 -30 -2 -5 -17 -50 -34 -100
-118 -347 -165 -740 -137 -1145 9 -130 28 -268 52 -370 3 -14 10 -47 15 -75 6
-27 15 -64 20 -81 6 -17 12 -40 14 -50 17 -85 112 -331 189 -489 219 -447 539
-824 942 -1111 174 -123 318 -205 547 -308 156 -70 446 -158 598 -182 19 -3
42 -7 50 -9 21 -6 87 -15 210 -30 101 -12 543 -13 600 -2 14 3 52 8 85 12 33
4 96 13 140 22 44 8 91 17 105 19 14 3 43 10 65 16 22 5 47 11 55 13 40 8 205
61 300 97 508 192 988 553 1309 985 176 237 300 464 415 763 25 67 74 226 82
270 3 14 8 34 11 45 4 11 8 25 9 30 32 151 50 261 64 410 7 79 5 492 -3 550
-3 17 -8 57 -12 90 -4 33 -9 62 -10 65 -2 3 -6 30 -10 60 -9 69 -66 300 -99
400 -146 444 -389 839 -720 1172 -320 323 -730 575 -1166 718 -131 43 -189 58
-345 90 -72 15 -84 17 -145 25 -30 4 -64 9 -75 11 -57 11 -467 27 -477 19z"/>
</g>
</svg>
